{
    "asset" : {
        "generator" : "Khronos glTF Blender I/O v3.3.36",
        "version" : "2.0"
    },
    "scene" : 0,
    "scenes" : [
        {
            "name" : "Scene",
            "nodes" : [
                0
            ]
        }
    ],
    "nodes" : [
        {
            "mesh" : 0,
            "name" : "HT",
            "scale" : [
                0.5368678569793701,
                0.433236300945282,
                0.5368679165840149
            ]
        }
    ],
    "materials" : [
        {
            "doubleSided" : true,
            "emissiveFactor" : [
                0.11283724009990692,
                0.04061603918671608,
                0.004092426970601082
            ],
            "name" : "Dore",
            "pbrMetallicRoughness" : {
                "baseColorFactor" : [
                    0.8000000715255737,
                    0.14522767066955566,
                    0,
                    1
                ],
                "metallicFactor" : 0.5227272510528564,
                "roughnessFactor" : 0
            }
        }
    ],
    "meshes" : [
        {
            "name" : "Circle.001",
            "primitives" : [
                {
                    "attributes" : {
                        "POSITION" : 0,
                        "NORMAL" : 1,
                        "TEXCOORD_0" : 2
                    },
                    "indices" : 3,
                    "material" : 0
                }
            ]
        }
    ],
    "accessors" : [
        {
            "bufferView" : 0,
            "componentType" : 5126,
            "count" : 2326,
            "max" : [
                1.54338800907135,
                0.3162696361541748,
                1.5499999523162842
            ],
            "min" : [
                -1.5433878898620605,
                -0.016217198222875595,
                -1.5499999523162842
            ],
            "type" : "VEC3"
        },
        {
            "bufferView" : 1,
            "componentType" : 5126,
            "count" : 2326,
            "type" : "VEC3"
        },
        {
            "bufferView" : 2,
            "componentType" : 5126,
            "count" : 2326,
            "type" : "VEC2"
        },
        {
            "bufferView" : 3,
            "componentType" : 5123,
            "count" : 2976,
            "type" : "SCALAR"
        }
    ],
    "bufferViews" : [
        {
            "buffer" : 0,
            "byteLength" : 27912,
            "byteOffset" : 0,
            "target" : 34962
        },
        {
            "buffer" : 0,
            "byteLength" : 27912,
            "byteOffset" : 27912,
            "target" : 34962
        },
        {
            "buffer" : 0,
            "byteLength" : 18608,
            "byteOffset" : 55824,
            "target" : 34962
        },
        {
            "buffer" : 0,
            "byteLength" : 5952,
            "byteOffset" : 74432,
            "target" : 34963
        }
    ],
    "buffers" : [
        {
            "byteLength" : 80384,
            "uri" : "data:application/octet-stream;base64,"
        }
    ]
}
